<svg id="Layer_1" data-name="Layer 1" xmlns="http://www.w3.org/2000/svg" viewBox="0 0 1339.71 5107.52"><defs><style>.cls-1{fill:#fff;stroke:#8f93d0;stroke-miterlimit:10;stroke-width:2px;opacity:0.4;}</style></defs><title>connecting-line-5</title><path class="cls-1" d="M1296.63,5107s20.27-48,27-98.67,6.76-158.79,27-256.78,43.93-398.69,0-591.27-141.9-516.95-300.7-655.47-375-263.54-158.8-462.89c121.63-141.9,189.2-189.21-6.76-358.14-153.43-87.85-337.87-60.82-446-54.06S-24.45,2775,73.54,2501.33c47.3-155.42,98-300.71,114.87-354.77,20.28-81.09,54.06-121.63,131.77-114.87s314.22,27,439.24,23.65c209.48,0,307.46,148.66,148.66,182.45-155.42-10.14-138.53-125-138.53-125s6.76-91.22,223-118.25c162.18,0,239.89,6.76,287.19,0s131.77,20.27,111.5-189.21c-54.06-378.41-327.74-486.53-385.18-516.94S776.92,1308.64,731,1389.73,556.69,1734.36,418.17,1785c-118.26,94.6-179.08,50.68-152-57.44S394.52,1285,472.23,1109.3,762.8,403.14,843.88,359.22c50.69-114.88,77.71-104.74,196-101.36s148.66,30.17,236.51-1.81,118-256,118-256" transform="translate(-55.61 0.13)"/></svg>