<?xml version="1.0" encoding="utf-8"?>
<!-- Generator: Adobe Illustrator 23.0.4, SVG Export Plug-In . SVG Version: 6.00 Build 0)  -->
<svg version="1.1" id="Layer_1" xmlns="http://www.w3.org/2000/svg" xmlns:xlink="http://www.w3.org/1999/xlink" x="0px" y="0px"
	 viewBox="0 0 160 70" style="enable-background:new 0 0 160 70;" xml:space="preserve">
<style type="text/css">
	.st0{fill:none;stroke:#000000;stroke-width:3;stroke-miterlimit:10;}
</style>
<g>
	<g>
		<g>
			<path d="M-915.07,135.38c0,3.23-1.03,5.28-4.58,5.28c-0.84,0-1.43-0.08-1.79-0.15v-2.33c0.35,0.06,0.9,0.08,1.39,0.08
				c1.78,0,2.06-1.14,2.06-2.8v-11.51h2.91V135.38z"/>
			<path d="M-901.49,133.05h-7.25v4.98h8l-0.36,2.41h-10.48v-16.49h10.41v2.43h-7.57v4.24h7.25V133.05z"/>
			<path d="M-898.19,140.44v-16.49h3.75c5.47,10.61,6.3,12.23,6.57,12.99h0.04c-0.16-2.04-0.19-4.72-0.19-7.41v-5.58h2.68v16.49
				h-3.57c-5.86-11.61-6.43-12.83-6.71-13.47h-0.02c0.12,2.1,0.12,4.92,0.12,7.87v5.6H-898.19z"/>
			<path d="M-881.63,140.44v-16.49h3.75c5.47,10.61,6.3,12.23,6.57,12.99h0.04c-0.16-2.04-0.19-4.72-0.19-7.41v-5.58h2.68v16.49
				h-3.57c-5.86-11.61-6.43-12.83-6.71-13.47h-0.02c0.12,2.1,0.12,4.92,0.12,7.87v5.6H-881.63z"/>
			<path d="M-862.16,123.95v16.49h-2.91v-16.49H-862.16z"/>
			<path d="M-858.45,123.95h10.26v2.43h-7.4V131h6.94v2.39h-6.94v7.05h-2.86V123.95z"/>
			<path d="M-835.44,133.05h-7.25v4.98h8l-0.36,2.41h-10.48v-16.49h10.41v2.43h-7.57v4.24h7.25V133.05z"/>
			<path d="M-829.28,133.39v7.05h-2.87v-16.49h6.42c3.04,0,5.21,1.51,5.21,4.39c0,2.29-1.26,3.37-2.61,3.85
				c1.67,0.6,2.3,1.92,2.3,4.03v0.38c0,1.48,0.07,2.89,0.22,3.83h-2.82c-0.23-0.68-0.3-1.93-0.3-3.86v-0.4
				c0-2.04-0.74-2.79-3.09-2.79H-829.28z M-829.28,131.06h2.69c1.79,0,3.16-0.49,3.16-2.48c0-1.61-1.13-2.29-2.69-2.29h-3.16V131.06
				z"/>
			<path d="M-917.66,158.45c0.27,1.72,1.4,2.71,3.23,2.71c1.91,0,2.79-0.88,2.79-2.28c0-1.61-0.89-2.28-3.45-3.03
				c-3.69-1.06-5-2.35-5-4.73c0-2.91,2.29-4.58,5.4-4.58c3.82,0,5.44,2.07,5.62,4.61h-2.87c-0.22-1.38-0.94-2.35-2.79-2.35
				c-1.63,0-2.44,0.77-2.44,2.05c0,1.34,0.84,1.78,3.28,2.5c4.16,1.23,5.22,2.87,5.22,5.2c0,2.71-1.82,4.9-5.89,4.9
				c-3.54,0-5.77-1.82-5.98-5H-917.66z"/>
			<path d="M-892.69,154.91c0,4.74-2.26,8.57-7.33,8.57c-4.9,0-7.12-3.82-7.12-8.59c0-4.15,2.23-8.36,7.34-8.36
				C-894.97,146.53-892.69,150.37-892.69,154.91z M-904.12,154.89c0,3.49,1.4,6.25,4.23,6.25c3.04,0,4.22-2.62,4.22-6.21
				c0-3.29-1.18-6.04-4.25-6.04C-902.87,148.88-904.12,151.55-904.12,154.89z"/>
			<path d="M-890.11,146.75h2.86v7.84c1.79-2.19,4.55-5.54,6.41-7.84h3.48l-5.81,6.71l6.16,9.78h-3.48l-4.68-7.86l-2.06,2.22v5.64
				h-2.88V146.75z"/>
			<path d="M-862.78,154.91c0,4.74-2.26,8.57-7.33,8.57c-4.9,0-7.12-3.82-7.12-8.59c0-4.15,2.23-8.36,7.34-8.36
				C-865.06,146.53-862.78,150.37-862.78,154.91z M-874.22,154.89c0,3.49,1.4,6.25,4.23,6.25c3.04,0,4.22-2.62,4.22-6.21
				c0-3.29-1.18-6.04-4.25-6.04C-872.96,148.88-874.22,151.55-874.22,154.89z"/>
			<path d="M-860.21,146.75h2.91v14.08h7.56l-0.34,2.41h-10.13V146.75z"/>
			<path d="M-834.82,154.91c0,4.74-2.26,8.57-7.33,8.57c-4.9,0-7.12-3.82-7.12-8.59c0-4.15,2.23-8.36,7.34-8.36
				C-837.1,146.53-834.82,150.37-834.82,154.91z M-846.26,154.89c0,3.49,1.4,6.25,4.23,6.25c3.04,0,4.22-2.62,4.22-6.21
				c0-3.29-1.18-6.04-4.25-6.04C-845,148.88-846.26,151.55-846.26,154.89z"/>
			<path d="M-828.87,163.24l-5.36-16.49h3.12l2.32,7.71c0.67,2.23,1.36,4.49,1.68,6.03h0.05c0.34-1.42,1.09-3.82,1.77-5.97
				l2.45-7.77h2.99l-5.54,16.49H-828.87z"/>
		</g>
	</g>
	<rect x="-936" y="110" class="st0" width="131" height="66.5"/>
</g>
<g>
	<g>
		<path d="M-755.28,135.38c0,3.23-1.03,5.28-4.58,5.28c-0.84,0-1.43-0.08-1.79-0.15v-2.33c0.35,0.06,0.9,0.08,1.39,0.08
			c1.78,0,2.06-1.14,2.06-2.8v-11.51h2.91V135.38z"/>
		<path d="M-741.62,133.05h-7.25v4.98h8l-0.36,2.41h-10.48v-16.49h10.41v2.43h-7.57v4.24h7.25V133.05z"/>
		<path d="M-738.37,140.44v-16.49h3.75c5.47,10.61,6.3,12.23,6.57,12.99h0.04c-0.16-2.04-0.19-4.72-0.19-7.41v-5.58h2.68v16.49
			h-3.57c-5.86-11.61-6.43-12.83-6.71-13.47h-0.02c0.12,2.1,0.12,4.92,0.12,7.87v5.6H-738.37z"/>
		<path d="M-721.64,140.44v-16.49h3.75c5.47,10.61,6.3,12.23,6.57,12.99h0.04c-0.16-2.04-0.19-4.72-0.19-7.41v-5.58h2.68v16.49
			h-3.57c-5.86-11.61-6.43-12.83-6.71-13.47h-0.02c0.12,2.1,0.12,4.92,0.12,7.87v5.6H-721.64z"/>
		<path d="M-702,123.95v16.49h-2.91v-16.49H-702z"/>
		<path d="M-698.12,123.95h10.26v2.43h-7.4V131h6.94v2.39h-6.94v7.05h-2.86V123.95z"/>
		<path d="M-675.33,133.05h-7.25v4.98h8l-0.36,2.41h-10.48v-16.49h10.41v2.43h-7.57v4.24h7.25V133.05z"/>
		<path d="M-669.22,133.39v7.05h-2.87v-16.49h6.42c3.04,0,5.21,1.51,5.21,4.39c0,2.29-1.26,3.37-2.61,3.85
			c1.67,0.6,2.3,1.92,2.3,4.03v0.38c0,1.48,0.07,2.89,0.22,3.83h-2.82c-0.23-0.68-0.3-1.93-0.3-3.86v-0.4
			c0-2.04-0.74-2.79-3.09-2.79H-669.22z M-669.22,131.06h2.69c1.79,0,3.16-0.49,3.16-2.48c0-1.61-1.13-2.29-2.69-2.29h-3.16V131.06z
			"/>
		<path d="M-757.89,158.45c0.27,1.72,1.4,2.71,3.23,2.71c1.91,0,2.79-0.88,2.79-2.28c0-1.61-0.89-2.28-3.45-3.03
			c-3.69-1.06-5-2.35-5-4.73c0-2.91,2.29-4.58,5.4-4.58c3.82,0,5.44,2.07,5.62,4.61h-2.87c-0.22-1.38-0.94-2.35-2.79-2.35
			c-1.63,0-2.44,0.77-2.44,2.05c0,1.34,0.84,1.78,3.28,2.5c4.16,1.23,5.22,2.87,5.22,5.2c0,2.71-1.82,4.9-5.89,4.9
			c-3.54,0-5.77-1.82-5.98-5H-757.89z"/>
		<path d="M-732.92,154.91c0,4.74-2.26,8.57-7.33,8.57c-4.9,0-7.12-3.82-7.12-8.59c0-4.15,2.23-8.36,7.34-8.36
			C-735.19,146.53-732.92,150.37-732.92,154.91z M-744.35,154.89c0,3.49,1.4,6.25,4.23,6.25c3.04,0,4.22-2.62,4.22-6.21
			c0-3.29-1.18-6.04-4.25-6.04C-743.09,148.88-744.35,151.55-744.35,154.89z"/>
		<path d="M-730.34,146.75h2.86v7.84c1.79-2.19,4.55-5.54,6.41-7.84h3.48l-5.81,6.71l6.16,9.78h-3.48l-4.68-7.86l-2.06,2.22v5.64
			h-2.88V146.75z"/>
		<path d="M-703.01,154.91c0,4.74-2.26,8.57-7.33,8.57c-4.9,0-7.12-3.82-7.12-8.59c0-4.15,2.23-8.36,7.34-8.36
			C-705.29,146.53-703.01,150.37-703.01,154.91z M-714.45,154.89c0,3.49,1.4,6.25,4.23,6.25c3.04,0,4.22-2.62,4.22-6.21
			c0-3.29-1.18-6.04-4.25-6.04C-713.19,148.88-714.45,151.55-714.45,154.89z"/>
		<path d="M-700.44,146.75h2.91v14.08h7.56l-0.34,2.41h-10.13V146.75z"/>
		<path d="M-675.05,154.91c0,4.74-2.26,8.57-7.33,8.57c-4.9,0-7.12-3.82-7.12-8.59c0-4.15,2.23-8.36,7.34-8.36
			C-677.33,146.53-675.05,150.37-675.05,154.91z M-686.49,154.89c0,3.49,1.4,6.25,4.23,6.25c3.04,0,4.22-2.62,4.22-6.21
			c0-3.29-1.18-6.04-4.25-6.04C-685.23,148.88-686.49,151.55-686.49,154.89z"/>
		<path d="M-669.1,163.24l-5.36-16.49h3.12l2.32,7.71c0.67,2.23,1.36,4.49,1.68,6.03h0.05c0.34-1.42,1.09-3.82,1.77-5.97l2.45-7.77
			h2.99l-5.54,16.49H-669.1z"/>
	</g>
	<rect x="-784" y="110" class="st0" width="147" height="66.5"/>
</g>
<g>
	<path d="M35.41,26.52c0,3.23-1.03,5.28-4.58,5.28c-0.84,0-1.43-0.08-1.79-0.15v-2.33c0.35,0.06,0.9,0.08,1.39,0.08
		c1.78,0,2.06-1.14,2.06-2.8V15.09h2.91V26.52z"/>
	<path d="M49.06,24.19h-7.25v4.98h8l-0.36,2.41H38.97V15.09h10.41v2.43h-7.57v4.24h7.25V24.19z"/>
	<path d="M52.31,31.58V15.09h3.75c5.47,10.61,6.3,12.23,6.57,12.99h0.04c-0.16-2.04-0.19-4.72-0.19-7.41v-5.58h2.68v16.49H61.6
		c-5.86-11.61-6.43-12.83-6.71-13.47h-0.02c0.12,2.1,0.12,4.92,0.12,7.87v5.6H52.31z"/>
	<path d="M69.04,31.58V15.09h3.75c5.47,10.61,6.3,12.23,6.57,12.99h0.04c-0.16-2.04-0.19-4.72-0.19-7.41v-5.58h2.68v16.49h-3.57
		c-5.86-11.61-6.43-12.83-6.71-13.47h-0.02c0.12,2.1,0.12,4.92,0.12,7.87v5.6H69.04z"/>
	<path d="M88.68,15.09v16.49h-2.91V15.09H88.68z"/>
	<path d="M92.56,15.09h10.26v2.43h-7.4v4.62h6.94v2.39h-6.94v7.05h-2.86V15.09z"/>
	<path d="M115.35,24.19h-7.25v4.98h8l-0.36,2.41h-10.48V15.09h10.41v2.43h-7.57v4.24h7.25V24.19z"/>
	<path d="M121.47,24.54v7.05h-2.87V15.09h6.42c3.04,0,5.21,1.51,5.21,4.39c0,2.29-1.26,3.37-2.61,3.85c1.67,0.6,2.3,1.92,2.3,4.03
		v0.38c0,1.48,0.07,2.89,0.22,3.83h-2.82c-0.23-0.68-0.3-1.93-0.3-3.86v-0.4c0-2.04-0.74-2.79-3.09-2.79H121.47z M121.47,22.2h2.69
		c1.79,0,3.16-0.49,3.16-2.48c0-1.61-1.13-2.29-2.69-2.29h-3.16V22.2z"/>
	<path d="M32.79,49.59c0.27,1.72,1.4,2.71,3.23,2.71c1.91,0,2.79-0.88,2.79-2.28c0-1.61-0.89-2.28-3.45-3.03
		c-3.69-1.06-5-2.35-5-4.73c0-2.91,2.29-4.58,5.4-4.58c3.82,0,5.44,2.07,5.62,4.61h-2.87c-0.22-1.38-0.94-2.35-2.79-2.35
		c-1.63,0-2.44,0.77-2.44,2.05c0,1.34,0.84,1.78,3.28,2.5c4.16,1.23,5.22,2.87,5.22,5.2c0,2.71-1.82,4.9-5.89,4.9
		c-3.54,0-5.77-1.82-5.98-5H32.79z"/>
	<path d="M57.77,46.05c0,4.74-2.26,8.57-7.33,8.57c-4.9,0-7.12-3.82-7.12-8.59c0-4.15,2.23-8.36,7.34-8.36
		C55.49,37.67,57.77,41.51,57.77,46.05z M46.33,46.03c0,3.49,1.4,6.25,4.23,6.25c3.04,0,4.22-2.62,4.22-6.21
		c0-3.29-1.18-6.04-4.25-6.04C47.59,40.02,46.33,42.69,46.33,46.03z"/>
	<path d="M60.34,37.89h2.86v7.84c1.79-2.19,4.55-5.54,6.41-7.84h3.48l-5.81,6.71l6.16,9.78h-3.48l-4.68-7.86l-2.06,2.22v5.64h-2.88
		V37.89z"/>
	<path d="M87.67,46.05c0,4.74-2.26,8.57-7.33,8.57c-4.9,0-7.12-3.82-7.12-8.59c0-4.15,2.23-8.36,7.34-8.36
		C85.39,37.67,87.67,41.51,87.67,46.05z M76.23,46.03c0,3.49,1.4,6.25,4.23,6.25c3.04,0,4.22-2.62,4.22-6.21
		c0-3.29-1.18-6.04-4.25-6.04C77.49,40.02,76.23,42.69,76.23,46.03z"/>
	<path d="M90.24,37.89h2.91v14.08h7.56l-0.34,2.41H90.24V37.89z"/>
	<path d="M115.63,46.05c0,4.74-2.26,8.57-7.33,8.57c-4.9,0-7.12-3.82-7.12-8.59c0-4.15,2.23-8.36,7.34-8.36
		C113.35,37.67,115.63,41.51,115.63,46.05z M104.19,46.03c0,3.49,1.4,6.25,4.23,6.25c3.04,0,4.22-2.62,4.22-6.21
		c0-3.29-1.18-6.04-4.25-6.04C105.45,40.02,104.19,42.69,104.19,46.03z"/>
	<path d="M121.58,54.38l-5.36-16.49h3.12l2.32,7.71c0.67,2.23,1.36,4.49,1.68,6.03h0.05c0.34-1.42,1.09-3.82,1.77-5.97l2.45-7.77
		h2.99l-5.54,16.49H121.58z"/>
</g>
<g>
	<path d="M156.82,2.86v64h-154v-64H156.82 M159.82-0.14h-160v70h160V-0.14L159.82-0.14z"/>
</g>
<g>
	<g>
		<path d="M-776.06,96.45c0,2.29-1.29,4.34-3.92,4.34c-2.46,0-3.83-1.9-3.83-4.29c0-2.39,1.4-4.29,3.92-4.29
			C-777.53,92.2-776.06,93.97-776.06,96.45z M-782.65,96.46c0,1.8,0.92,3.38,2.72,3.38c1.94,0,2.71-1.6,2.71-3.38
			c0-1.8-0.87-3.32-2.71-3.32C-781.82,93.15-782.65,94.68-782.65,96.46z"/>
		<path d="M-769.65,98.89c0,0.59,0.01,1.41,0.01,1.77h-1.02c-0.02-0.16-0.04-0.53-0.04-0.91c-0.3,0.67-0.88,1.06-1.84,1.06
			c-1.02,0-2.01-0.51-2.01-2.23v-4h1.04v3.77c0,0.8,0.25,1.54,1.26,1.54c1.12,0,1.55-0.62,1.55-2.14v-3.17h1.05V98.89z"/>
		<path d="M-768.62,94.58h1.05v-1.79h1.05v1.79h1.34v0.86h-1.34V99c0,0.59,0.14,0.89,0.69,0.89c0.15,0,0.36-0.01,0.53-0.05v0.79
			c-0.26,0.1-0.62,0.11-0.91,0.11c-0.95,0-1.37-0.49-1.37-1.5v-3.81h-1.05V94.58z"/>
		<path d="M-764.02,100.67v-8.81h1.05v8.81H-764.02z"/>
		<path d="M-761.17,91.86h1.05v1.31h-1.05V91.86z M-761.17,94.58h1.05v6.08h-1.05V94.58z"/>
		<path d="M-758.32,96.12c0-0.53,0-1.06-0.01-1.53h1.02c0.03,0.18,0.04,0.82,0.04,1c0.24-0.52,0.74-1.14,1.91-1.14
			c1.14,0,2.03,0.7,2.03,2.31v3.91h-1.05v-3.78c0-0.92-0.36-1.54-1.29-1.54c-1.15,0-1.61,0.87-1.61,2.1v3.22h-1.05V96.12z"/>
		<path d="M-750.91,97.82c0.01,1.24,0.63,2.12,1.66,2.12c0.96,0,1.27-0.5,1.47-0.94h1.06c-0.24,0.78-0.89,1.82-2.56,1.82
			c-1.91,0-2.69-1.55-2.69-3.12c0-1.81,0.91-3.25,2.76-3.25c1.96,0,2.6,1.57,2.6,2.87c0,0.19,0,0.34-0.02,0.5H-750.91z
			 M-747.67,97.08c-0.01-1-0.52-1.8-1.55-1.8c-1.07,0-1.54,0.74-1.65,1.8H-747.67z"/>
		<path d="M-744.75,98.93c0.17,0.67,0.67,1.06,1.49,1.06c0.89,0,1.24-0.39,1.24-0.94c0-0.57-0.28-0.83-1.44-1.11
			c-1.74-0.42-2.1-0.95-2.1-1.78c0-0.86,0.63-1.71,2.2-1.71c1.57,0,2.21,0.91,2.29,1.76h-1.02c-0.09-0.39-0.38-0.94-1.32-0.94
			c-0.85,0-1.11,0.41-1.11,0.81c0,0.45,0.25,0.68,1.36,0.95c1.84,0.44,2.21,1.05,2.21,1.96c0,1.07-0.84,1.84-2.36,1.84
			c-1.58,0-2.35-0.8-2.5-1.88H-744.75z"/>
	</g>
</g>
</svg>
