<svg id="Layer_1" data-name="Layer 1" xmlns="http://www.w3.org/2000/svg" viewBox="0 0 100.41 39.53"><defs><style>.cls-1{fill:#006683;}</style></defs><title>logo</title><path class="cls-1" d="M6.36,11.33c0,3.24-1,5.28-4.57,5.28A9.43,9.43,0,0,1,0,16.46V14.13a9.47,9.47,0,0,0,1.39.08c1.78,0,2.07-1.14,2.07-2.8V-.09h2.9Z"/><path class="cls-1" d="M19.84,9.1H12.59v5h8l-.36,2.41H9.75V0H20.16V2.43H12.59V6.66h7.25Z"/><path class="cls-1" d="M23.09,16.49V0h3.75c5.47,10.61,6.3,12.23,6.57,13h0c-.17-2-.19-4.72-.19-7.41V0h2.68V16.49H32.37C26.51,4.88,26,3.66,25.66,3h0c.12,2.1.12,4.92.12,7.87v5.6Z"/><path class="cls-1" d="M39.19,16.49V0h3.75c5.47,10.61,6.3,12.23,6.57,13h0c-.16-2-.19-4.72-.19-7.41V0H52V16.49H48.48C42.61,4.88,42.05,3.66,41.77,3h0c.12,2.1.13,4.92.13,7.87v5.6Z"/><path class="cls-1" d="M58.39,0V16.49H55.48V0Z"/><path class="cls-1" d="M61.71,0H72V2.43h-7.4V7h6.94v2.4H64.57v7H61.71Z"/><path class="cls-1" d="M84.5,9.1H77.25v5h8l-.36,2.41H74.41V0H84.82V2.43H77.25V6.66H84.5Z"/><path class="cls-1" d="M90.62,9.44v7H87.75V0h6.42c3,0,5.2,1.51,5.2,4.39a3.74,3.74,0,0,1-2.61,3.85c1.67.61,2.3,1.92,2.3,4v.38a25.31,25.31,0,0,0,.23,3.83H96.46a14.65,14.65,0,0,1-.29-3.86v-.4c0-2-.74-2.79-3.09-2.79Zm0-2.33h2.69c1.79,0,3.16-.5,3.16-2.49,0-1.6-1.13-2.29-2.69-2.29H90.62Z"/><path class="cls-1" d="M4.25,34.49a3,3,0,0,0,3.23,2.72c1.91,0,2.79-.89,2.79-2.28,0-1.61-.89-2.28-3.45-3-3.69-1.06-5-2.35-5-4.73,0-2.91,2.28-4.59,5.4-4.59,3.82,0,5.43,2.07,5.62,4.61H10a2.5,2.5,0,0,0-2.79-2.35c-1.63,0-2.44.78-2.44,2.05s.84,1.78,3.28,2.5c4.16,1.23,5.22,2.87,5.22,5.2,0,2.71-1.82,4.9-5.89,4.9-3.54,0-5.77-1.82-6-5Z"/><path class="cls-1" d="M29.23,31c0,4.74-2.27,8.57-7.34,8.57-4.9,0-7.12-3.82-7.12-8.59,0-4.15,2.23-8.36,7.34-8.36C27,22.58,29.23,26.41,29.23,31Zm-11.44,0c0,3.49,1.4,6.25,4.23,6.25,3.05,0,4.22-2.62,4.22-6.21,0-3.29-1.18-6-4.25-6S17.79,27.6,17.79,30.93Z"/><path class="cls-1" d="M31.8,22.8h2.86v7.84c1.78-2.19,4.55-5.54,6.41-7.84h3.48l-5.81,6.71,6.16,9.78H41.42l-4.68-7.86-2.06,2.22v5.64H31.8Z"/><path class="cls-1" d="M59.13,31c0,4.74-2.26,8.57-7.33,8.57-4.91,0-7.12-3.82-7.12-8.59,0-4.15,2.23-8.36,7.34-8.36C56.85,22.58,59.13,26.41,59.13,31Zm-11.44,0c0,3.49,1.4,6.25,4.24,6.25,3,0,4.22-2.62,4.22-6.21,0-3.29-1.18-6-4.26-6S47.69,27.6,47.69,30.93Z"/><path class="cls-1" d="M61.7,22.8h2.91V36.88H71.5l.33,2.41H61.7Z"/><path class="cls-1" d="M85.72,31c0,4.74-2.26,8.57-7.33,8.57-4.91,0-7.12-3.82-7.12-8.59,0-4.15,2.23-8.36,7.34-8.36C83.44,22.58,85.72,26.41,85.72,31Zm-11.44,0c0,3.49,1.4,6.25,4.24,6.25,3,0,4.22-2.62,4.22-6.21,0-3.29-1.18-6-4.26-6S74.28,27.6,74.28,30.93Z"/><path class="cls-1" d="M91.4,39.29,86,22.8h3.12l2.33,7.71c.67,2.22,1.35,4.49,1.68,6h0c.34-1.42,1.09-3.81,1.77-6l2.45-7.77h3L94.88,39.29Z"/></svg>