<svg xmlns="http://www.w3.org/2000/svg" xmlns:xlink="http://www.w3.org/1999/xlink" width="685" height="685" viewBox="0 0 685 685">
  <defs>
    <clipPath id="clip-path">
      <rect id="Rectangle_3" data-name="Rectangle 3" width="685" height="685" transform="translate(129 81)" fill="#fff" stroke="#707070" stroke-width="1"/>
    </clipPath>
    <clipPath id="clip-path-2">
      <rect width="6" height="1487" fill="none"/>
    </clipPath>
    <clipPath id="clip-path-3">
      <rect width="6" height="568" fill="none"/>
    </clipPath>
    <clipPath id="clip-path-5">
      <rect width="6" height="464" fill="none"/>
    </clipPath>
    <clipPath id="clip-path-10">
      <rect width="6" height="1491" fill="none"/>
    </clipPath>
    <clipPath id="clip-path-12">
      <rect width="6" height="555" fill="none"/>
    </clipPath>
    <clipPath id="clip-path-13">
      <rect width="6" height="938" fill="none"/>
    </clipPath>
    <clipPath id="clip-path-14">
      <rect width="6" height="393" fill="none"/>
    </clipPath>
    <clipPath id="clip-path-15">
      <rect width="6" height="403" fill="none"/>
    </clipPath>
  </defs>
  <g id="Mask_Group_1" data-name="Mask Group 1" transform="translate(-129 -81)" clip-path="url(#clip-path)">
    <g id="Map" transform="translate(12 31)">
      <path id="park" d="M371.255,583.677l102.1,62.859,68.485-62.583L643.2,407.089,512.7,330.948Z" fill="#d3d3d3" opacity="0.402"/>
      <circle id="Ellipse_1" data-name="Ellipse 1" cx="12.5" cy="12.5" r="12.5" transform="translate(453 318)" fill="#d95029"/>
      <text id="Union_Square_Park" data-name="Union Square Park" transform="translate(453 504)" fill="#707070" font-size="16" font-family="AcuminPro-Regular, Acumin Pro"><tspan x="0" y="12">Union </tspan><tspan x="0" y="30">Square Park</tspan></text>
      <text id="_17th_St" data-name="17th St" transform="translate(321.77 234.06) rotate(31)" fill="#707070" font-size="16" font-family="AcuminPro-Regular, Acumin Pro"><tspan x="0" y="12">17th St</tspan></text>
      <text id="Union_Square_W" data-name="Union Square W" transform="translate(350.917 559.886) rotate(-60)" fill="#707070" font-size="16" font-family="AcuminPro-Regular, Acumin Pro"><tspan x="0" y="12">Union Square W</tspan></text>
      <text id="Union_Square_E" data-name="Union Square E" transform="translate(552.917 509.886) rotate(-60)" fill="#707070" font-size="16" font-family="AcuminPro-Regular, Acumin Pro"><tspan x="0" y="12">Union Square E</tspan></text>
      <text id="Park_Ave_S" data-name="Park Ave S" transform="translate(641.917 356.729) rotate(-60)" fill="#707070" font-size="16" font-family="AcuminPro-Regular, Acumin Pro"><tspan x="0" y="12">Park Ave S</tspan></text>
      <text id="Broadway" transform="translate(504.719 285.939) rotate(-74)" fill="#707070" font-size="16" font-family="AcuminPro-Regular, Acumin Pro"><tspan x="0" y="12">Broadway</tspan></text>
      <text id="_18th_St" data-name="18th St" transform="translate(362.77 158.06) rotate(31)" fill="#707070" font-size="16" font-family="AcuminPro-Regular, Acumin Pro"><tspan x="0" y="12">18th St</tspan></text>
      <text id="_16th_St" data-name="16th St" transform="translate(271.77 323.06) rotate(31)" fill="#707070" font-size="16" font-family="AcuminPro-Regular, Acumin Pro"><tspan x="0" y="12">16th St</tspan></text>
      <text id="_15th_St" data-name="15th St" transform="translate(224.77 411.06) rotate(31)" fill="#707070" font-size="16" font-family="AcuminPro-Regular, Acumin Pro"><tspan x="0" y="12">15th St</tspan></text>
      <text id="_14th_St" data-name="14th St" transform="translate(180.77 490.06) rotate(31)" fill="#707070" font-size="16" font-family="AcuminPro-Regular, Acumin Pro"><tspan x="0" y="12">14th St</tspan></text>
      <g id="Subway_" data-name="Subway ">
        <g id="streets" opacity="0.212">
          <g id="Repeat_Grid_1" data-name="Repeat Grid 1" transform="translate(-55.185 6.596) rotate(-60)" clip-path="url(#clip-path-2)">
            <g transform="translate(-197 -57)">
              <rect id="Rectangle_1" data-name="Rectangle 1" width="6" height="668" transform="translate(197 57)" fill="#585858"/>
            </g>
            <g transform="translate(-197 605)">
              <rect id="Rectangle_1-2" data-name="Rectangle 1" width="6" height="668" transform="translate(197 57)" fill="#585858"/>
            </g>
            <g transform="translate(-197 1267)">
              <rect id="Rectangle_1-3" data-name="Rectangle 1" width="6" height="668" transform="translate(197 57)" fill="#585858"/>
            </g>
          </g>
          <g id="Repeat_Grid_11" data-name="Repeat Grid 11" transform="matrix(0.485, -0.875, 0.875, 0.485, 593.47, 488.915)" clip-path="url(#clip-path-3)">
            <g transform="translate(-197 -57)">
              <rect id="Rectangle_1-4" data-name="Rectangle 1" width="6" height="668" transform="translate(197 57)" fill="#585858"/>
            </g>
          </g>
          <g id="Repeat_Grid_14" data-name="Repeat Grid 14" transform="translate(-29.134 138.576) rotate(-60)" clip-path="url(#clip-path-3)">
            <g transform="translate(-197 -57)">
              <rect id="Rectangle_1-5" data-name="Rectangle 1" width="6" height="668" transform="translate(197 57)" fill="#585858"/>
            </g>
          </g>
          <g id="Repeat_Grid_12" data-name="Repeat Grid 12" transform="matrix(0.485, -0.875, 0.875, 0.485, 540.47, 587.915)" clip-path="url(#clip-path-5)">
            <g transform="translate(-197 -57)">
              <rect id="Rectangle_1-6" data-name="Rectangle 1" width="6" height="668" transform="translate(197 57)" fill="#585858"/>
            </g>
          </g>
          <g id="Repeat_Grid_13" data-name="Repeat Grid 13" transform="translate(8.419 274.365) rotate(-60)" clip-path="url(#clip-path-5)">
            <g transform="translate(-197 -57)">
              <rect id="Rectangle_1-7" data-name="Rectangle 1" width="6" height="668" transform="translate(197 57)" fill="#585858"/>
            </g>
          </g>
          <g id="Repeat_Grid_6" data-name="Repeat Grid 6" transform="translate(-55.185 342.596) rotate(-60)" clip-path="url(#clip-path-2)">
            <g transform="translate(-197 -57)">
              <rect id="Rectangle_1-8" data-name="Rectangle 1" width="6" height="668" transform="translate(197 57)" fill="#585858"/>
            </g>
            <g transform="translate(-197 605)">
              <rect id="Rectangle_1-9" data-name="Rectangle 1" width="6" height="668" transform="translate(197 57)" fill="#585858"/>
            </g>
            <g transform="translate(-197 1267)">
              <rect id="Rectangle_1-10" data-name="Rectangle 1" width="6" height="668" transform="translate(197 57)" fill="#585858"/>
            </g>
          </g>
          <g id="Repeat_Grid_7" data-name="Repeat Grid 7" transform="translate(-192.185 401.596) rotate(-60)" clip-path="url(#clip-path-2)">
            <g transform="translate(-197 -57)">
              <rect id="Rectangle_1-11" data-name="Rectangle 1" width="6" height="668" transform="translate(197 57)" fill="#585858"/>
            </g>
            <g transform="translate(-197 605)">
              <rect id="Rectangle_1-12" data-name="Rectangle 1" width="6" height="668" transform="translate(197 57)" fill="#585858"/>
            </g>
            <g transform="translate(-197 1267)">
              <rect id="Rectangle_1-13" data-name="Rectangle 1" width="6" height="668" transform="translate(197 57)" fill="#585858"/>
            </g>
          </g>
          <g id="Repeat_Grid_8" data-name="Repeat Grid 8" transform="translate(-217.185 496.596) rotate(-60)" clip-path="url(#clip-path-2)">
            <g transform="translate(-197 -57)">
              <rect id="Rectangle_1-14" data-name="Rectangle 1" width="6" height="668" transform="translate(197 57)" fill="#585858"/>
            </g>
            <g transform="translate(-197 605)">
              <rect id="Rectangle_1-15" data-name="Rectangle 1" width="6" height="668" transform="translate(197 57)" fill="#585858"/>
            </g>
            <g transform="translate(-197 1267)">
              <rect id="Rectangle_1-16" data-name="Rectangle 1" width="6" height="668" transform="translate(197 57)" fill="#585858"/>
            </g>
          </g>
          <g id="Repeat_Grid_2" data-name="Repeat Grid 2" transform="translate(-55.168 -93.435) rotate(-60)" clip-path="url(#clip-path-10)">
            <g transform="translate(-197 -57)">
              <rect id="Rectangle_1-17" data-name="Rectangle 1" width="6" height="668" transform="translate(197 57)" fill="#585858"/>
            </g>
            <g transform="translate(-197 607)">
              <rect id="Rectangle_1-18" data-name="Rectangle 1" width="6" height="668" transform="translate(197 57)" fill="#585858"/>
            </g>
            <g transform="translate(-197 1271)">
              <rect id="Rectangle_1-19" data-name="Rectangle 1" width="6" height="668" transform="translate(197 57)" fill="#585858"/>
            </g>
          </g>
          <g id="Repeat_Grid_4" data-name="Repeat Grid 4" transform="translate(-55.168 -305.435) rotate(-60)" clip-path="url(#clip-path-10)">
            <g transform="translate(-197 -57)">
              <rect id="Rectangle_1-20" data-name="Rectangle 1" width="6" height="668" transform="translate(197 57)" fill="#585858"/>
            </g>
            <g transform="translate(-197 607)">
              <rect id="Rectangle_1-21" data-name="Rectangle 1" width="6" height="668" transform="translate(197 57)" fill="#585858"/>
            </g>
            <g transform="translate(-197 1271)">
              <rect id="Rectangle_1-22" data-name="Rectangle 1" width="6" height="668" transform="translate(197 57)" fill="#585858"/>
            </g>
          </g>
          <g id="Repeat_Grid_5" data-name="Repeat Grid 5" transform="translate(509.832 331.66) rotate(30)" clip-path="url(#clip-path-12)">
            <g transform="translate(-197 -57)">
              <rect id="Rectangle_1-23" data-name="Rectangle 1" width="6" height="668" transform="translate(197 57)" fill="#585858"/>
            </g>
          </g>
          <g id="Repeat_Grid_15" data-name="Repeat Grid 15" transform="matrix(0.875, 0.485, -0.485, 0.875, 439.935, -10.616)" clip-path="url(#clip-path-13)">
            <g transform="translate(-197 -57)">
              <rect id="Rectangle_1-24" data-name="Rectangle 1" width="6" height="668" transform="translate(197 57)" fill="#585858"/>
            </g>
            <g transform="translate(-197 607)">
              <rect id="Rectangle_1-25" data-name="Rectangle 1" width="6" height="668" transform="translate(197 57)" fill="#585858"/>
            </g>
          </g>
          <g id="Repeat_Grid_10" data-name="Repeat Grid 10" transform="translate(837.832 64.66) rotate(30)" clip-path="url(#clip-path-14)">
            <g transform="translate(-197 -57)">
              <rect id="Rectangle_1-26" data-name="Rectangle 1" width="6" height="668" transform="translate(197 57)" fill="#585858"/>
            </g>
          </g>
          <g id="Repeat_Grid_9" data-name="Repeat Grid 9" transform="translate(627.944 -50.769) rotate(17)" clip-path="url(#clip-path-15)">
            <g transform="translate(-197 -57)">
              <rect id="Rectangle_1-27" data-name="Rectangle 1" width="6" height="668" transform="translate(197 57)" fill="#585858"/>
            </g>
          </g>
          <path id="Path_1" data-name="Path 1" d="M650.576,413.353,557.164,580.707s-38.964,53.912-81.535,70.343" transform="translate(-7.895 -5.686)" fill="none" stroke="#707070" stroke-width="6"/>
          <path id="Path_2" data-name="Path 2" d="M555.208,691.8C533.389,589.773,562.2,553.465,562.2,553.465" fill="none" stroke="#707070" stroke-width="6"/>
        </g>
        <circle id="Ellipse_2" data-name="Ellipse 2" cx="10" cy="10" r="10" transform="translate(491 631)" fill="#707070"/>
        <circle id="Ellipse_4" data-name="Ellipse 4" cx="10" cy="10" r="10" transform="translate(535 631)" fill="#707070"/>
        <circle id="Ellipse_6" data-name="Ellipse 6" cx="10" cy="10" r="10" transform="translate(579 631)" fill="#707070"/>
        <circle id="Ellipse_8" data-name="Ellipse 8" cx="10" cy="10" r="10" transform="translate(625 631)" fill="#707070"/>
        <circle id="Ellipse_3" data-name="Ellipse 3" cx="10" cy="10" r="10" transform="translate(513 631)" fill="#707070"/>
        <circle id="Ellipse_5" data-name="Ellipse 5" cx="10" cy="10" r="10" transform="translate(557 631)" fill="#707070"/>
        <circle id="Ellipse_7" data-name="Ellipse 7" cx="10" cy="10" r="10" transform="translate(601 631)" fill="#707070"/>
        <circle id="Ellipse_9" data-name="Ellipse 9" cx="10" cy="10" r="10" transform="translate(647 631)" fill="#707070"/>
        <g id="Rectangle_2" data-name="Rectangle 2" transform="translate(461 628)" fill="#fff" stroke="#707070" stroke-width="1">
          <rect width="25" height="25" rx="7" stroke="none"/>
          <rect x="0.5" y="0.5" width="24" height="24" rx="6.5" fill="none"/>
        </g>
        <text id="M" transform="translate(473.5 645)" fill="#707070" font-size="16" font-family="AcuminPro-Regular, Acumin Pro"><tspan x="-6.944" y="0">M</tspan></text>
        <text id="_4" data-name="4" transform="translate(501 646)" fill="#fff" font-size="16" font-family="AcuminPro-Regular, Acumin Pro"><tspan x="-4.312" y="0">4</tspan></text>
        <text id="_6" data-name="6" transform="translate(545 646)" fill="#fff" font-size="16" font-family="AcuminPro-Regular, Acumin Pro"><tspan x="-4.392" y="0">6</tspan></text>
        <text id="N" transform="translate(589 646)" fill="#fff" font-size="16" font-family="AcuminPro-Regular, Acumin Pro"><tspan x="-5.952" y="0">N</tspan></text>
        <text id="R" transform="translate(635 646)" fill="#fff" font-size="16" font-family="AcuminPro-Regular, Acumin Pro"><tspan x="-5.136" y="0">R</tspan></text>
        <text id="_5" data-name="5" transform="translate(523 646)" fill="#fff" font-size="16" font-family="AcuminPro-Regular, Acumin Pro"><tspan x="-4.36" y="0">5</tspan></text>
        <text id="L" transform="translate(567 646)" fill="#fff" font-size="16" font-family="AcuminPro-Regular, Acumin Pro"><tspan x="-4.488" y="0">L</tspan></text>
        <text id="Q" transform="translate(611 646)" fill="#fff" font-size="16" font-family="AcuminPro-Regular, Acumin Pro"><tspan x="-6.064" y="0">Q</tspan></text>
        <text id="W" transform="translate(657 646)" fill="#fff" font-size="16" font-family="AcuminPro-Regular, Acumin Pro"><tspan x="-7.488" y="0">W</tspan></text>
      </g>
    </g>
  </g>
</svg>
