<svg width="303" height="75" viewBox="0 0 303 75" fill="none" xmlns="http://www.w3.org/2000/svg">
<path d="M9.43 16.87C9.43 21.66 7.91 24.69 2.65 24.69C1.7612 24.7021 0.873419 24.6251 0 24.46L0 21.03C0.683198 21.1162 1.37142 21.1563 2.06 21.15C4.7 21.15 5.12 19.45 5.12 17V0H9.43V16.87Z" fill="#1D3E47"/>
<path d="M9.43 16.87C9.43 21.66 7.91 24.69 2.65 24.69C1.7612 24.7021 0.873419 24.6251 0 24.46L0 21.03C0.683198 21.1162 1.37142 21.1563 2.06 21.15C4.7 21.15 5.12 19.45 5.12 17V0H9.43V16.87Z" fill="#316682"/>
<path d="M9.43 16.87C9.43 21.66 7.91 24.69 2.65 24.69C1.7612 24.7021 0.873419 24.6251 0 24.46L0 21.03C0.683198 21.1162 1.37142 21.1563 2.06 21.15C4.7 21.15 5.12 19.45 5.12 17V0H9.43V16.87Z" fill="#407482"/>
<path d="M29.4 13.56H18.65V20.94H30.5L30 24.51H14.44V0.0799561H29.87V3.66996H18.65V9.94996H29.4V13.56Z" fill="#1D3E47"/>
<path d="M29.4 13.56H18.65V20.94H30.5L30 24.51H14.44V0.0799561H29.87V3.66996H18.65V9.94996H29.4V13.56Z" fill="#316682"/>
<path d="M29.4 13.56H18.65V20.94H30.5L30 24.51H14.44V0.0799561H29.87V3.66996H18.65V9.94996H29.4V13.56Z" fill="#407482"/>
<path d="M34.22 24.51V0.0799561H39.77C47.88 15.81 49.11 18.19 49.5 19.32H49.56C49.32 16.32 49.29 12.32 49.29 8.31996V0.0799561H53.29V24.51H48C39.31 7.30996 38.47 5.50996 38.05 4.50996C38.23 7.61996 38.23 11.8 38.23 16.17V24.47L34.22 24.51Z" fill="#1D3E47"/>
<path d="M34.22 24.51V0.0799561H39.77C47.88 15.81 49.11 18.19 49.5 19.32H49.56C49.32 16.32 49.29 12.32 49.29 8.31996V0.0799561H53.29V24.51H48C39.31 7.30996 38.47 5.50996 38.05 4.50996C38.23 7.61996 38.23 11.8 38.23 16.17V24.47L34.22 24.51Z" fill="#316682"/>
<path d="M34.22 24.51V0.0799561H39.77C47.88 15.81 49.11 18.19 49.5 19.32H49.56C49.32 16.32 49.29 12.32 49.29 8.31996V0.0799561H53.29V24.51H48C39.31 7.30996 38.47 5.50996 38.05 4.50996C38.23 7.61996 38.23 11.8 38.23 16.17V24.47L34.22 24.51Z" fill="#407482"/>
<path d="M58.08 24.51V0.0799561H63.64C71.74 15.81 72.97 18.19 73.37 19.32H73.43C73.19 16.32 73.15 12.32 73.15 8.31996V0.0799561H77.15V24.51H71.84C63.15 7.30996 62.31 5.50996 61.84 4.50996C62 7.65996 62 11.84 62 16.21V24.51H58.08Z" fill="#1D3E47"/>
<path d="M58.08 24.51V0.0799561H63.64C71.74 15.81 72.97 18.19 73.37 19.32H73.43C73.19 16.32 73.15 12.32 73.15 8.31996V0.0799561H77.15V24.51H71.84C63.15 7.30996 62.31 5.50996 61.84 4.50996C62 7.65996 62 11.84 62 16.21V24.51H58.08Z" fill="#316682"/>
<path d="M58.08 24.51V0.0799561H63.64C71.74 15.81 72.97 18.19 73.37 19.32H73.43C73.19 16.32 73.15 12.32 73.15 8.31996V0.0799561H77.15V24.51H71.84C63.15 7.30996 62.31 5.50996 61.84 4.50996C62 7.65996 62 11.84 62 16.21V24.51H58.08Z" fill="#407482"/>
<path d="M86.53 0.0799561V24.51H82.22V0.0799561H86.53Z" fill="#1D3E47"/>
<path d="M86.53 0.0799561V24.51H82.22V0.0799561H86.53Z" fill="#316682"/>
<path d="M86.53 0.0799561V24.51H82.22V0.0799561H86.53Z" fill="#407482"/>
<path d="M91.45 0.0799561H106.65V3.66996H95.65V10.51H106V14.03H95.69V24.51H91.45V0.0799561Z" fill="#1D3E47"/>
<path d="M91.45 0.0799561H106.65V3.66996H95.65V10.51H106V14.03H95.69V24.51H91.45V0.0799561Z" fill="#316682"/>
<path d="M91.45 0.0799561H106.65V3.66996H95.65V10.51H106V14.03H95.69V24.51H91.45V0.0799561Z" fill="#407482"/>
<path d="M125.22 13.56H114.48V20.94H126.33L125.79 24.51H110.26V0.0799561H125.69V3.66996H114.48V9.94996H125.22V13.56Z" fill="#1D3E47"/>
<path d="M125.22 13.56H114.48V20.94H126.33L125.79 24.51H110.26V0.0799561H125.69V3.66996H114.48V9.94996H125.22V13.56Z" fill="#316682"/>
<path d="M125.22 13.56H114.48V20.94H126.33L125.79 24.51H110.26V0.0799561H125.69V3.66996H114.48V9.94996H125.22V13.56Z" fill="#407482"/>
<path d="M134.29 14.03V24.51H130V0.0799561H139.5C144.02 0.0799561 147.22 2.30996 147.22 6.57996C147.312 7.82842 146.98 9.07138 146.278 10.1076C145.575 11.1439 144.544 11.9128 143.35 12.29C145.82 13.19 146.76 15.14 146.76 18.29V18.86C146.73 20.7555 146.841 22.6507 147.09 24.53H143C142.595 22.6554 142.447 20.7344 142.56 18.82V18.22C142.56 15.22 141.46 14.09 137.98 14.09L134.29 14.03ZM134.29 10.57H138.29C140.93 10.57 142.97 9.83996 142.97 6.88996C142.97 4.49996 141.29 3.49996 138.97 3.49996H134.29V10.57Z" fill="#1D3E47"/>
<path d="M134.29 14.03V24.51H130V0.0799561H139.5C144.02 0.0799561 147.22 2.30996 147.22 6.57996C147.312 7.82842 146.98 9.07138 146.278 10.1076C145.575 11.1439 144.544 11.9128 143.35 12.29C145.82 13.19 146.76 15.14 146.76 18.29V18.86C146.73 20.7555 146.841 22.6507 147.09 24.53H143C142.595 22.6554 142.447 20.7344 142.56 18.82V18.22C142.56 15.22 141.46 14.09 137.98 14.09L134.29 14.03ZM134.29 10.57H138.29C140.93 10.57 142.97 9.83996 142.97 6.88996C142.97 4.49996 141.29 3.49996 138.97 3.49996H134.29V10.57Z" fill="#316682"/>
<path d="M134.29 14.03V24.51H130V0.0799561H139.5C144.02 0.0799561 147.22 2.30996 147.22 6.57996C147.312 7.82842 146.98 9.07138 146.278 10.1076C145.575 11.1439 144.544 11.9128 143.35 12.29C145.82 13.19 146.76 15.14 146.76 18.29V18.86C146.73 20.7555 146.841 22.6507 147.09 24.53H143C142.595 22.6554 142.447 20.7344 142.56 18.82V18.22C142.56 15.22 141.46 14.09 137.98 14.09L134.29 14.03ZM134.29 10.57H138.29C140.93 10.57 142.97 9.83996 142.97 6.88996C142.97 4.49996 141.29 3.49996 138.97 3.49996H134.29V10.57Z" fill="#407482"/>
<path d="M160.4 17.7299C160.512 18.8927 161.077 19.9647 161.974 20.7134C162.87 21.4621 164.026 21.8274 165.19 21.7299C168.02 21.7299 169.32 20.4299 169.32 18.3599C169.32 15.9699 168 14.9799 164.21 13.8599C158.74 12.2999 156.8 10.3799 156.8 6.85995C156.8 2.54995 160.18 0.0699463 164.8 0.0699463C170.46 0.0699463 172.8 3.12995 173.13 6.89995H168.88C168.55 4.89995 167.49 3.40995 164.74 3.40995C162.32 3.40995 161.12 4.55995 161.12 6.40995C161.12 8.25995 162.37 9.04995 165.99 10.1099C172.15 11.9399 173.73 14.3699 173.73 17.8299C173.73 21.8299 171.02 25.0899 164.99 25.0899C159.75 25.0899 156.45 22.3899 156.13 17.6799L160.4 17.7299Z" fill="#1D3E47"/>
<path d="M160.4 17.7299C160.512 18.8927 161.077 19.9647 161.974 20.7134C162.87 21.4621 164.026 21.8274 165.19 21.7299C168.02 21.7299 169.32 20.4299 169.32 18.3599C169.32 15.9699 168 14.9799 164.21 13.8599C158.74 12.2999 156.8 10.3799 156.8 6.85995C156.8 2.54995 160.18 0.0699463 164.8 0.0699463C170.46 0.0699463 172.8 3.12995 173.13 6.89995H168.88C168.55 4.89995 167.49 3.40995 164.74 3.40995C162.32 3.40995 161.12 4.55995 161.12 6.40995C161.12 8.25995 162.37 9.04995 165.99 10.1099C172.15 11.9399 173.73 14.3699 173.73 17.8299C173.73 21.8299 171.02 25.0899 164.99 25.0899C159.75 25.0899 156.45 22.3899 156.13 17.6799L160.4 17.7299Z" fill="#316682"/>
<path d="M160.4 17.7299C160.512 18.8927 161.077 19.9647 161.974 20.7134C162.87 21.4621 164.026 21.8274 165.19 21.7299C168.02 21.7299 169.32 20.4299 169.32 18.3599C169.32 15.9699 168 14.9799 164.21 13.8599C158.74 12.2999 156.8 10.3799 156.8 6.85995C156.8 2.54995 160.18 0.0699463 164.8 0.0699463C170.46 0.0699463 172.8 3.12995 173.13 6.89995H168.88C168.55 4.89995 167.49 3.40995 164.74 3.40995C162.32 3.40995 161.12 4.55995 161.12 6.40995C161.12 8.25995 162.37 9.04995 165.99 10.1099C172.15 11.9399 173.73 14.3699 173.73 17.8299C173.73 21.8299 171.02 25.0899 164.99 25.0899C159.75 25.0899 156.45 22.3899 156.13 17.6799L160.4 17.7299Z" fill="#407482"/>
<path d="M197.41 12.5C197.41 19.5 194.06 25.2 186.55 25.2C179.28 25.2 176 19.54 176 12.47C176 6.31996 179.3 0.0799561 186.87 0.0799561C194 0.0799561 197.41 5.75996 197.41 12.5ZM180.46 12.5C180.46 17.67 182.54 21.76 186.74 21.76C191.25 21.76 192.99 17.87 192.99 12.55C192.99 7.67996 191.24 3.54996 186.69 3.54996C182.33 3.55996 180.46 7.51996 180.46 12.46V12.5Z" fill="#1D3E47"/>
<path d="M197.41 12.5C197.41 19.5 194.06 25.2 186.55 25.2C179.28 25.2 176 19.54 176 12.47C176 6.31996 179.3 0.0799561 186.87 0.0799561C194 0.0799561 197.41 5.75996 197.41 12.5ZM180.46 12.5C180.46 17.67 182.54 21.76 186.74 21.76C191.25 21.76 192.99 17.87 192.99 12.55C192.99 7.67996 191.24 3.54996 186.69 3.54996C182.33 3.55996 180.46 7.51996 180.46 12.46V12.5Z" fill="#316682"/>
<path d="M197.41 12.5C197.41 19.5 194.06 25.2 186.55 25.2C179.28 25.2 176 19.54 176 12.47C176 6.31996 179.3 0.0799561 186.87 0.0799561C194 0.0799561 197.41 5.75996 197.41 12.5ZM180.46 12.5C180.46 17.67 182.54 21.76 186.74 21.76C191.25 21.76 192.99 17.87 192.99 12.55C192.99 7.67996 191.24 3.54996 186.69 3.54996C182.33 3.55996 180.46 7.51996 180.46 12.46V12.5Z" fill="#407482"/>
<path d="M201.23 0.410034H205.46V12.03C208.11 8.78003 212.21 3.83003 214.96 0.420034H220.12L211.51 10.35L220.64 24.85H215.48L208.55 13.21L205.49 16.49V24.85H201.23V0.410034Z" fill="#1D3E47"/>
<path d="M201.23 0.410034H205.46V12.03C208.11 8.78003 212.21 3.83003 214.96 0.420034H220.12L211.51 10.35L220.64 24.85H215.48L208.55 13.21L205.49 16.49V24.85H201.23V0.410034Z" fill="#316682"/>
<path d="M201.23 0.410034H205.46V12.03C208.11 8.78003 212.21 3.83003 214.96 0.420034H220.12L211.51 10.35L220.64 24.85H215.48L208.55 13.21L205.49 16.49V24.85H201.23V0.410034Z" fill="#407482"/>
<path d="M241.73 12.5C241.73 19.5 238.37 25.2 230.86 25.2C223.59 25.2 220.31 19.54 220.31 12.47C220.31 6.31996 223.62 0.0799561 231.19 0.0799561C238.35 0.0799561 241.73 5.75996 241.73 12.5ZM224.78 12.5C224.78 17.67 226.85 21.76 231.05 21.76C235.57 21.76 237.3 17.87 237.3 12.55C237.3 7.67996 235.56 3.54996 231 3.54996C226.64 3.55996 224.78 7.51996 224.78 12.46V12.5Z" fill="#1D3E47"/>
<path d="M241.73 12.5C241.73 19.5 238.37 25.2 230.86 25.2C223.59 25.2 220.31 19.54 220.31 12.47C220.31 6.31996 223.62 0.0799561 231.19 0.0799561C238.35 0.0799561 241.73 5.75996 241.73 12.5ZM224.78 12.5C224.78 17.67 226.85 21.76 231.05 21.76C235.57 21.76 237.3 17.87 237.3 12.55C237.3 7.67996 235.56 3.54996 231 3.54996C226.64 3.55996 224.78 7.51996 224.78 12.46V12.5Z" fill="#316682"/>
<path d="M241.73 12.5C241.73 19.5 238.37 25.2 230.86 25.2C223.59 25.2 220.31 19.54 220.31 12.47C220.31 6.31996 223.62 0.0799561 231.19 0.0799561C238.35 0.0799561 241.73 5.75996 241.73 12.5ZM224.78 12.5C224.78 17.67 226.85 21.76 231.05 21.76C235.57 21.76 237.3 17.87 237.3 12.55C237.3 7.67996 235.56 3.54996 231 3.54996C226.64 3.55996 224.78 7.51996 224.78 12.46V12.5Z" fill="#407482"/>
<path d="M245.54 0.410034H249.85V21.27H260.05L260.55 24.84H245.55L245.54 0.410034Z" fill="#1D3E47"/>
<path d="M245.54 0.410034H249.85V21.27H260.05L260.55 24.84H245.55L245.54 0.410034Z" fill="#316682"/>
<path d="M245.54 0.410034H249.85V21.27H260.05L260.55 24.84H245.55L245.54 0.410034Z" fill="#407482"/>
<path d="M281.13 12.5C281.13 19.5 277.78 25.2 270.27 25.2C263 25.2 259.72 19.54 259.72 12.47C259.72 6.31996 263.02 0.0799561 270.59 0.0799561C277.75 0.0799561 281.13 5.75996 281.13 12.5ZM264.18 12.5C264.18 17.67 266.26 21.76 270.46 21.76C274.97 21.76 276.71 17.87 276.71 12.55C276.71 7.67996 274.96 3.54996 270.4 3.54996C266.05 3.55996 264.18 7.51996 264.18 12.46V12.5Z" fill="#1D3E47"/>
<path d="M281.13 12.5C281.13 19.5 277.78 25.2 270.27 25.2C263 25.2 259.72 19.54 259.72 12.47C259.72 6.31996 263.02 0.0799561 270.59 0.0799561C277.75 0.0799561 281.13 5.75996 281.13 12.5ZM264.18 12.5C264.18 17.67 266.26 21.76 270.46 21.76C274.97 21.76 276.71 17.87 276.71 12.55C276.71 7.67996 274.96 3.54996 270.4 3.54996C266.05 3.55996 264.18 7.51996 264.18 12.46V12.5Z" fill="#316682"/>
<path d="M281.13 12.5C281.13 19.5 277.78 25.2 270.27 25.2C263 25.2 259.72 19.54 259.72 12.47C259.72 6.31996 263.02 0.0799561 270.59 0.0799561C277.75 0.0799561 281.13 5.75996 281.13 12.5ZM264.18 12.5C264.18 17.67 266.26 21.76 270.46 21.76C274.97 21.76 276.71 17.87 276.71 12.55C276.71 7.67996 274.96 3.54996 270.4 3.54996C266.05 3.55996 264.18 7.51996 264.18 12.46V12.5Z" fill="#407482"/>
<path d="M289.55 24.84L281.6 0.410034H286.23L289.67 11.83C290.67 15.13 291.67 18.48 292.16 20.76H292.23C292.73 18.65 293.85 15.1 294.85 11.92L298.48 0.410034H302.91L294.7 24.84H289.55Z" fill="#1D3E47"/>
<path d="M289.55 24.84L281.6 0.410034H286.23L289.67 11.83C290.67 15.13 291.67 18.48 292.16 20.76H292.23C292.73 18.65 293.85 15.1 294.85 11.92L298.48 0.410034H302.91L294.7 24.84H289.55Z" fill="#316682"/>
<path d="M289.55 24.84L281.6 0.410034H286.23L289.67 11.83C290.67 15.13 291.67 18.48 292.16 20.76H292.23C292.73 18.65 293.85 15.1 294.85 11.92L298.48 0.410034H302.91L294.7 24.84H289.55Z" fill="#407482"/>
<path d="M73.4011 45.782H69.4411V42.47H73.5991V40.796H67.5691V53H73.6351L73.8691 51.362H69.4411V47.438H73.4011V45.782ZM77.2663 53V49.04C77.2663 46.844 77.2663 44.972 77.1763 43.46H77.1943C77.3383 44 77.8063 45.242 80.7043 53H82.8103V40.796H81.1003V44.612C81.1003 46.61 81.1183 48.41 81.2083 49.94H81.1903C81.0463 49.364 80.5603 48.122 77.7523 40.796H75.5563V53H77.2663ZM91.1685 45.782H87.2085V42.47H91.3665V40.796H85.3365V53H91.4025L91.6365 51.362H87.2085V47.438H91.1685V45.782ZM96.3297 47.654C97.8057 47.654 98.1657 48.302 98.1657 49.976V50.408C98.1657 51.434 98.1837 52.442 98.3637 53H100.2C100.092 52.352 100.038 51.722 100.038 50.426V49.94C100.038 48.176 99.6237 47.312 98.6157 46.88C99.2817 46.628 100.218 45.854 100.218 44.072C100.218 41.966 99.0297 40.796 96.8697 40.796H93.3237V53H95.1957V47.654H96.3297ZM95.1957 42.362H96.5997C97.7877 42.362 98.3097 43.046 98.3097 44.144C98.3097 45.44 97.7877 46.106 96.4197 46.106H95.1957V42.362ZM109.332 46.196H105.66V47.834H107.46V48.482C107.46 50.534 107.1 51.596 105.768 51.596C104.274 51.596 103.896 49.868 103.896 46.952C103.896 44.162 104.364 42.236 105.876 42.236C107.316 42.236 107.424 43.622 107.46 44.09H109.332C109.296 43.37 109.116 40.616 105.93 40.616C103.356 40.616 101.934 42.596 101.934 46.952C101.934 50.768 102.78 53.198 105.354 53.198C106.524 53.198 107.298 52.784 107.784 51.866C107.802 52.334 107.838 52.64 107.874 53H109.332V46.196ZM115.258 53V48.608C115.258 48.428 115.276 48.302 115.312 48.23L118.426 40.796H116.428C115.762 42.668 114.808 45.17 114.358 46.556C113.998 45.296 113.044 42.776 112.306 40.796H110.2L113.278 48.212C113.332 48.32 113.35 48.428 113.35 48.572V53H115.258ZM124.941 53H126.831V42.47H129.477V40.796H122.295V42.47H124.941V53ZM131.01 53H132.9V47.384H136.194V53H138.084V40.796H136.194V45.746H132.9V40.796H131.01V53ZM146.429 45.782H142.469V42.47H146.627V40.796H140.597V53H146.663L146.897 51.362H142.469V47.438H146.429V45.782ZM151.59 47.654C153.066 47.654 153.426 48.302 153.426 49.976V50.408C153.426 51.434 153.444 52.442 153.624 53H155.46C155.352 52.352 155.298 51.722 155.298 50.426V49.94C155.298 48.176 154.884 47.312 153.876 46.88C154.542 46.628 155.478 45.854 155.478 44.072C155.478 41.966 154.29 40.796 152.13 40.796H148.584V53H150.456V47.654H151.59ZM150.456 42.362H151.86C153.048 42.362 153.57 43.046 153.57 44.144C153.57 45.44 153.048 46.106 151.68 46.106H150.456V42.362ZM162.285 49.652L163.005 53H164.985L162.069 40.796H159.621L156.759 53H158.649L159.351 49.652H162.285ZM159.693 47.996C160.197 45.62 160.629 43.676 160.773 42.56H160.827C161.007 43.658 161.403 45.44 161.943 47.996H159.693ZM166.422 53H168.312V47.924H169.734C172.02 47.924 173.334 46.646 173.334 44.36C173.334 42.002 171.894 40.796 169.914 40.796H166.422V53ZM168.312 42.362H169.644C170.778 42.362 171.426 43.064 171.426 44.324C171.426 45.728 170.814 46.394 169.518 46.394H168.312V42.362ZM179.103 53V48.608C179.103 48.428 179.121 48.302 179.157 48.23L182.271 40.796H180.273C179.607 42.668 178.653 45.17 178.203 46.556C177.843 45.296 176.889 42.776 176.151 40.796H174.045L177.123 48.212C177.177 48.32 177.195 48.428 177.195 48.572V53H179.103ZM190.918 38.96V57.698H192.466V38.96H190.918ZM206.161 53V48.608C206.161 48.428 206.179 48.302 206.215 48.23L209.329 40.796H207.331C206.665 42.668 205.711 45.17 205.261 46.556C204.901 45.296 203.947 42.776 203.209 40.796H201.103L204.181 48.212C204.235 48.32 204.253 48.428 204.253 48.572V53H206.161ZM213.753 40.616C211.287 40.616 209.883 42.47 209.883 46.79C209.883 51.2 211.089 53.198 213.663 53.198C216.417 53.198 217.551 51.164 217.551 46.808C217.551 42.596 216.363 40.616 213.753 40.616ZM213.717 42.236C215.103 42.236 215.607 43.694 215.607 46.79C215.607 49.958 215.139 51.596 213.717 51.596C212.349 51.596 211.827 49.868 211.827 46.772C211.827 43.838 212.349 42.236 213.717 42.236ZM226.71 46.196H223.038V47.834H224.838V48.482C224.838 50.534 224.478 51.596 223.146 51.596C221.652 51.596 221.274 49.868 221.274 46.952C221.274 44.162 221.742 42.236 223.254 42.236C224.694 42.236 224.802 43.622 224.838 44.09H226.71C226.674 43.37 226.494 40.616 223.308 40.616C220.734 40.616 219.312 42.596 219.312 46.952C219.312 50.768 220.158 53.198 222.732 53.198C223.902 53.198 224.676 52.784 225.162 51.866C225.18 52.334 225.216 52.64 225.252 53H226.71V46.196ZM233.726 49.652L234.446 53H236.426L233.51 40.796H231.062L228.2 53H230.09L230.792 49.652H233.726ZM231.134 47.996C231.638 45.62 232.07 43.676 232.214 42.56H232.268C232.448 43.658 232.844 45.44 233.384 47.996H231.134Z" fill="#585858"/>
</svg>
