<svg id="Layer_2" data-name="Layer 2" xmlns="http://www.w3.org/2000/svg" viewBox="0 0 409.8 3811.03"><defs><style>.cls-1{fill:none;stroke:#8f93d0;stroke-miterlimit:10;stroke-width:2px;opacity:0.15;}</style></defs><title>connecting-line-6</title><path class="cls-1" d="M343,3810s17.38-25.27,21.11-70.45c17.25-209.1,6.16-207.36-76.11-285.55-52.95-50.33-118-63-55-133,109.78-122,198-5,212-88,24.18-143.38-209.1-158.07-214-281-4.17-104.67,59-101,63-203,2.25-57.38-133-144-151-52-15.39,78.67,64.86,142.3,85,63,16-63,12.47-160.1,5-225-14.69-127.54-177.12,37.87-193-65-4.25-27.56,4.54-50.17,27-61,56-27,107-70,103-109-4.9-47.8-19.19-79.31-34.68-97.59-67-79.09-5.27-250.31-26.32-318.22C86,1810,92,1765,107,1700.35c7.6-32.74,93-101.35,20-134.14-67.18-30.17-50.39-73.93-48-95.47C91,1362.65,167,1446,248,1425c83-19.73-62-261-69-346.38-3-110.47-40-207.52-90-317.19-30.94-67.87-43-109.68,55-164.12,127-82.85,179.71-56.43,197-139.66,10-48.13-24.11-60.38-75-46.55C178,435,76,387,71,322.71,66.75,268,165,250.12,186,134.92,197.13,73.86,193,36,174,0" transform="translate(-37.96 0.47)"/></svg>