<svg id="Layer_3" data-name="Layer 3" xmlns="http://www.w3.org/2000/svg" viewBox="0 0 906.8 3273.03"><defs><style>.cls-1,.cls-2{fill:none;stroke:#8f93d0;stroke-miterlimit:10;stroke-width:2px;}.cls-1{opacity:0.4;}.cls-2{opacity:0.2;}</style></defs><title>connecting-line-7</title><path class="cls-1" d="M573.18,0" transform="translate(-16.22 0.06)"/><path class="cls-2" d="M879.27,3272.73c-50.17-199-185.95-452.16-277.18-588.7-67-100.24-154.4-94.61-234.39-58.57C344.2,2636.05,96,2780.91,75.64,2796.65,34.75,2828.2-2.66,2908,29.13,2972.34c61.16,123.89,238.58,174,290.2,167.81,64.18-7.7,124.64-31.53,119.06-92.35-12.4-135.17-98.07-192.59-104.17-355.89-5.42-144.91-54.26-243.13-80-321-31-93.84,93.62-130,191.6-167.81C565.56,2157,640.34,1976,650.46,1813.44c18.72-300.7,237.21-442.61,266.49-577.76,33.79-119.38-110.23-121.63-173.91-67.57-74.81,63.51-186.49,319.85-312.63,236.51-101.36-83.34-64.05-311.29-122.65-446.44-93.19-221.27-108.11-313.63-123.29-378-30.7-130.08-22.83-256.08,27.9-287.19C284,249.1,621.7,198.43,703,145.48,806.41,90.31,811.08,37.37,808.83,0" transform="translate(-16.22 0.06)"/></svg>