<svg id="Layer_2" data-name="Layer 2" xmlns="http://www.w3.org/2000/svg" viewBox="0 0 409.8 3811"><defs><style>.cls-1{fill:none;stroke:#8f93d0;stroke-miterlimit:10;stroke-width:2px;opacity:0.15;}</style></defs><title>connecting-line-6</title><path class="cls-1" d="M343,3810s17.38-25.27,21.11-70.45c17.25-209.1,6.16-207.36-76.11-285.55-52.95-50.33-118-63-55-133,109.78-122,198-5,212-88,24.18-143.38-209.1-158.07-214-281-4.17-104.67,59-101,63-203,2.25-57.38-133-144-151-52-15.39,78.67,64.86,142.3,85,63,16-63,12.47-160.1,5-225-14.69-127.54-177.12,37.87-193-65-4.25-27.56,4.54-50.17,27-61,56-27,107-70,103-109-4.9-47.8-19.19-79.31-34.68-97.59-67-79.09.1-252.21-26.32-318.22-6-15-6.81-37-2-52.86,6-19.73,16-22.1,38-41.82,22.44-20.12,35.37-31.58,49-50.5,25-34.72,33.37-19.81,47-10.26,36,25.25,25,78.12,28,146.76,1.49,34.17-16.81,29.88-31,6.31-19-31.56-22.91-37.8-66-60.75-40-21.31-43.93-5.59-60-52.08-6-17.36-13-45-5-68.64,10.76-31.84,12-36.3,41-32.35,13.22,1.8,25,7.89,26-13.42,2.52-53.64-12-81.27-47-88.37-72.18-14.64-50.39-73.93-48-95.47,12-108.09-15.12-91.94-4-220.14,4.88-56.19,2-78.9,28-23.67,8,35.51,27,91.53,46,188.58,10,44.19,20.83,99.83,46,56.81,12-20.52,26-36.3,53-47.34,83-19.73,58-123.88,54-234.34-9-110.47-16.32-278.65-27-344-25-153.07-52-126.24-55-50.49-13,81.27,22,150.7,40,305.35,10,135.71-68,141.23-81-22.88-3-110.47-40-207.52-90-317.19-30.94-67.87-43-109.68,55-164.12,127-82.85,179.71-56.43,197-139.66,10-48.13-24-60-75-46.55-29.68,7.81-55.56,37.08-82,69.44-31.94,39.1-47,73.38-61-3.16-2.3-63.77-12.81-91.74-52-154.65-29-46.55,94-72.59,115-187.79C197.13,73.86,159.64,29.56,174,0" transform="translate(-37.96 0.44)"/></svg>