<svg id="Layer_3" data-name="Layer 3" xmlns="http://www.w3.org/2000/svg" viewBox="0 0 983.04 3273.53"><defs><style>.cls-1{fill:none;stroke:#8f93d0;stroke-miterlimit:10;stroke-width:2px;opacity:0.3;}</style></defs><title>connecting-line-7</title><path class="cls-1" d="M879.27,3272.73S693.32,2820.57,602.09,2684c-67-100.24-154.4-94.61-234.39-58.57C344.2,2636.05,96,2780.91,75.64,2796.65c-40.89,31.55-78.8,111.55-46.51,175.69,16,31.76,31.86,66.17,45.58,90.1,12.74,22.23,29.55,52.31,43.25,64.34,9.3,8.16,10.66,10.42,17.67,6.33,37.44-21.82,51.31-16.28,84-11s48.13,24.22,99.75,18c64.18-7.7,124.64-31.53,119.06-92.35-12.4-135.17-95-293.87-104.17-355.89-21.25-143.45-54.26-243.13-80-321-31-93.84,89.29-144.16,191.6-167.81,50.29-11.62,29.84-9,168.36-63.63,58.59-23.09,44.95-18.21,44.64-45.61-.63-55.73-19.49-118-8.37-280.44,4.88-71.21,72.55-143.59,128.36-23.65,78.13,162.18-5.58,163.87-47.44,400.38-41.85,189.21,209.28,168.94,231.6,113.19,27-67.32,55.81-40.55,14-226.38-44.94-416.1-178.59-787.24-150.68-841.3-5.59-49-19.54-121.63-83.22-67.57-74.81,63.51-317.83,283.81-386.75,356-208.1,164.32-104.86,226.83-1.61,328.19,33.48,30.41,83.71,118.25,100.45,5.07,16.75-28.72,33.49-69.27,58.6-162.18,21-77.87,19.53-190.9-39.06-326-167.43-371.66-275-724.59-290.2-788.93-30.7-130.08-25.12-260.16,27.9-287.19,52.52-26.78,136.73-84.47,152.9-146.42,11.73-41.1.57-69.82,84.28-14.07,36.28,27,204.1,232.09,253.93,270.3,21.31,18.74,48.7,55.75,39.56,96.29C725,615.73,792.77,766,710,891.05c-69.81,105.43-122.31,73.33-169.81,1.25-20.87-48.55-41-58.44-115-167.93-42.63-63.07-72.39-198.22-57.51-265.79C387.3,399.35,573.18,0,573.18,0" transform="translate(-16 0.42)"/></svg>