<svg id="Layer_1" data-name="Layer 1" xmlns="http://www.w3.org/2000/svg" viewBox="0 0 204.4 53.31"><defs><style>.cls-1{fill:#006683;}.cls-2{fill:#333;}</style></defs><title>logo</title><path class="cls-1" d="M6.36,11.33c0,3.24-1,5.28-4.57,5.28A9.43,9.43,0,0,1,0,16.46V14.13a9.47,9.47,0,0,0,1.39.08c1.78,0,2.07-1.14,2.07-2.8V-.09h2.9Z"/><path class="cls-1" d="M19.84,9.1H12.59v5h8l-.36,2.41H9.75V0H20.16V2.43H12.59V6.66h7.25Z"/><path class="cls-1" d="M23.09,16.49V0h3.75c5.47,10.61,6.3,12.23,6.57,13h0c-.17-2-.19-4.72-.19-7.41V0h2.68V16.49H32.37C26.51,4.88,26,3.66,25.66,3h0c.12,2.1.12,4.92.12,7.87v5.6Z"/><path class="cls-1" d="M39.19,16.49V0h3.75c5.47,10.61,6.3,12.23,6.57,13h0c-.16-2-.19-4.72-.19-7.41V0H52V16.49H48.48C42.61,4.88,42.05,3.66,41.77,3h0c.12,2.1.13,4.92.13,7.87v5.6Z"/><path class="cls-1" d="M58.39,0V16.49H55.48V0Z"/><path class="cls-1" d="M61.71,0H72V2.43h-7.4V7h6.94v2.4H64.57v7H61.71Z"/><path class="cls-1" d="M84.5,9.1H77.25v5h8l-.36,2.41H74.41V0H84.82V2.43H77.25V6.66H84.5Z"/><path class="cls-1" d="M90.62,9.44v7H87.75V0h6.42c3,0,5.2,1.51,5.2,4.39a3.74,3.74,0,0,1-2.61,3.85c1.67.61,2.3,1.92,2.3,4v.38a25.31,25.31,0,0,0,.23,3.83H96.46a14.65,14.65,0,0,1-.29-3.86v-.4c0-2-.74-2.79-3.09-2.79Zm0-2.33h2.69c1.79,0,3.16-.5,3.16-2.49,0-1.6-1.13-2.29-2.69-2.29H90.62Z"/><path class="cls-1" d="M108.24,11.92a3,3,0,0,0,3.23,2.71c1.91,0,2.79-.88,2.79-2.28,0-1.61-.89-2.28-3.45-3-3.69-1.06-5-2.35-5-4.73,0-2.9,2.28-4.58,5.4-4.58,3.82,0,5.43,2.07,5.62,4.61H114a2.49,2.49,0,0,0-2.79-2.35c-1.63,0-2.44.77-2.44,2s.84,1.78,3.28,2.5c4.16,1.23,5.22,2.87,5.22,5.2,0,2.71-1.82,4.9-5.89,4.9-3.54,0-5.77-1.82-6-5Z"/><path class="cls-1" d="M133.22,8.38c0,4.74-2.27,8.57-7.34,8.57-4.9,0-7.12-3.81-7.12-8.59C118.76,4.21,121,0,126.1,0,130.94,0,133.22,3.84,133.22,8.38Zm-11.44,0c0,3.49,1.4,6.24,4.23,6.24,3,0,4.22-2.62,4.22-6.21,0-3.29-1.18-6-4.25-6S121.78,5,121.78,8.36Z"/><path class="cls-1" d="M135.79.22h2.86V8.06c1.78-2.19,4.55-5.54,6.41-7.84h3.48l-5.81,6.71,6.16,9.78h-3.48l-4.68-7.85-2.06,2.21v5.64h-2.88Z"/><path class="cls-1" d="M163.12,8.38c0,4.74-2.26,8.57-7.33,8.57-4.91,0-7.12-3.81-7.12-8.59C148.67,4.21,150.9,0,156,0,160.84,0,163.12,3.84,163.12,8.38Zm-11.44,0c0,3.49,1.4,6.24,4.24,6.24,3,0,4.21-2.62,4.21-6.21,0-3.29-1.17-6-4.25-6S151.68,5,151.68,8.36Z"/><path class="cls-1" d="M165.69.22h2.91V14.3h6.89l.33,2.41H165.69Z"/><path class="cls-1" d="M189.71,8.38c0,4.74-2.26,8.57-7.33,8.57-4.91,0-7.12-3.81-7.12-8.59,0-4.15,2.23-8.36,7.34-8.36C187.43,0,189.71,3.84,189.71,8.38Zm-11.44,0c0,3.49,1.4,6.24,4.24,6.24,3,0,4.22-2.62,4.22-6.21,0-3.29-1.18-6-4.26-6S178.27,5,178.27,8.36Z"/><path class="cls-1" d="M195.39,16.71,190,.22h3.12l2.33,7.71c.67,2.23,1.35,4.49,1.67,6h0c.34-1.43,1.09-3.82,1.77-6L201.42.22h3l-5.53,16.49Z"/><path class="cls-2" d="M51.65,25.1H48.57v2.39H52l-.13.81h-4.2V21.41h4.16v.81H48.57v2.06h3.08Z"/><path class="cls-2" d="M53.07,28.3V21.41h1.26c2.61,4.76,3,5.42,3.1,5.73h0c-.06-.9-.07-2-.07-3.13v-2.6h.9V28.3H57.09c-2.8-5.17-3-5.62-3.16-5.91h0c0,.89,0,2.05,0,3.29V28.3Z"/><path class="cls-2" d="M64,25.1H60.92v2.39h3.39l-.13.81H60V21.41h4.16v.81H60.92v2.06H64Z"/><path class="cls-2" d="M66.37,25.22V28.3h-1V21.41h2.51c1.23,0,2.1.61,2.1,1.79a1.55,1.55,0,0,1-1.12,1.61c.71.24,1,.8,1,1.73v.13A10.66,10.66,0,0,0,70,28.3h-.94A6.87,6.87,0,0,1,69,26.67v-.14c0-.94-.34-1.31-1.43-1.31Zm0-.78H67.6c.85,0,1.46-.25,1.46-1.17,0-.72-.49-1.07-1.26-1.07H66.37Z"/><path class="cls-2" d="M76.55,28.3h-.74a5.78,5.78,0,0,1-.08-1,2,2,0,0,1-2,1.06c-1.8,0-2.69-1.53-2.69-3.51s1-3.58,3-3.58a2.31,2.31,0,0,1,2.52,2h-.94A1.51,1.51,0,0,0,74,22.12c-1.38,0-2,1.24-2,2.78s.56,2.71,1.88,2.71,1.69-1,1.69-2.17v0H73.88v-.84h2.67Z"/><path class="cls-2" d="M79.29,28.3V25.61a.34.34,0,0,0-.06-.2l-2.23-4h1.09c.56,1.07,1.43,2.69,1.72,3.25.52-1,1.19-2.22,1.73-3.25h1l-2.26,4a.26.26,0,0,0,0,.18v2.7Z"/><path class="cls-2" d="M87,22.23H85v-.82h5v.82H88V28.3H87Z"/><path class="cls-2" d="M90.89,21.41h1v2.87h3.08V21.41h1V28.3h-1V25.09H91.85V28.3h-1Z"/><path class="cls-2" d="M101.62,25.1H98.54v2.39h3.39l-.13.81H97.6V21.41h4.16v.81H98.54v2.06h3.08Z"/><path class="cls-2" d="M104,25.22V28.3H103V21.41h2.51c1.23,0,2.1.61,2.1,1.79a1.55,1.55,0,0,1-1.12,1.61c.71.24,1,.8,1,1.73v.13a10.66,10.66,0,0,0,.09,1.63h-.94a6.87,6.87,0,0,1-.12-1.63v-.14c0-.94-.34-1.31-1.43-1.31Zm0-.78h1.23c.85,0,1.46-.25,1.46-1.17,0-.72-.49-1.07-1.26-1.07H104Z"/><path class="cls-2" d="M110,26.29l-.64,2h-1c.41-1.21,1.76-5.51,2.22-6.89h1.22l2.31,6.89h-1l-.66-2Zm2.26-.82c-.55-1.7-.91-2.72-1-3.29h0c-.19.81-.54,1.87-1,3.29Z"/><path class="cls-2" d="M115.17,21.41h2.35c1.29,0,2.27.67,2.27,1.94s-1,2-2.38,2h-1.28V28.3h-1Zm1,3.2h1.23c.87,0,1.45-.3,1.45-1.24s-.58-1.17-1.43-1.17h-1.25Z"/><path class="cls-2" d="M122.5,28.3V25.61a.34.34,0,0,0-.06-.2l-2.23-4h1.09c.56,1.07,1.43,2.69,1.72,3.25.52-1,1.19-2.22,1.73-3.25h1l-2.26,4a.26.26,0,0,0,0,.18v2.7Z"/><path class="cls-2" d="M129.74,20.51V30.92h-.81V20.51Z"/><path class="cls-2" d="M135.2,28.3V25.61a.34.34,0,0,0-.06-.2l-2.23-4H134c.56,1.07,1.43,2.69,1.72,3.25.52-1,1.19-2.22,1.73-3.25h1l-2.26,4a.26.26,0,0,0,0,.18v2.7Z"/><path class="cls-2" d="M144.49,24.81c0,2-.92,3.59-3,3.59s-2.89-1.54-2.89-3.58c0-1.79.93-3.51,3-3.51S144.49,22.85,144.49,24.81Zm-4.87,0c0,1.57.64,2.8,1.95,2.8s1.94-1.2,1.94-2.79-.58-2.71-1.94-2.71S139.62,23.32,139.62,24.81Z"/><path class="cls-2" d="M151,28.3h-.73a5.78,5.78,0,0,1-.08-1,2,2,0,0,1-2,1.06c-1.8,0-2.69-1.53-2.69-3.51s1.05-3.58,3-3.58a2.31,2.31,0,0,1,2.52,2h-.95a1.5,1.5,0,0,0-1.62-1.2c-1.38,0-2,1.24-2,2.78s.56,2.71,1.88,2.71,1.69-1,1.69-2.17v0h-1.72v-.84H151Z"/><path class="cls-2" d="M153.63,26.29l-.64,2h-1c.41-1.21,1.76-5.51,2.21-6.89h1.23l2.31,6.89h-1l-.66-2Zm2.26-.82c-.55-1.7-.91-2.72-1-3.29h0c-.19.81-.54,1.87-1,3.29Z"/></svg>