<svg width="300" height="160" viewBox="0 0 300 160" fill="none" xmlns="http://www.w3.org/2000/svg">
<rect width="300" height="160" fill="#1D3E47"/>
<rect width="300" height="160" fill="#316682"/>
<rect width="300" height="160" fill="#407482"/>
<path d="M75.1224 51.1153C75.1224 56.6893 73.3296 60.2153 67.1256 60.2153C66.0773 60.2295 65.0302 60.1398 64 59.9477L64 55.9562C64.8058 56.0565 65.6176 56.1031 66.4297 56.0959C69.5435 56.0959 70.0389 54.1176 70.0389 51.2666L70.0389 31.4839L75.1224 31.4839L75.1224 51.1153Z" fill="white"/>
<path d="M98.8146 47.3381L85.786 47.3381L85.786 56.018L100.148 56.018L99.5418 60.2168L80.6836 60.2168L80.6836 31.4839L99.3843 31.4839L99.3843 35.7062L85.786 35.7062L85.786 43.0923L98.8146 43.0923L98.8146 47.3381Z" fill="white"/>
<path d="M103.855 60.2168L103.855 31.4839L110.329 31.4839C119.789 49.9844 121.224 52.7836 121.679 54.1126L121.749 54.1126C121.469 50.5842 121.434 45.8797 121.434 41.1752L121.434 31.4839L126.1 31.4839L126.1 60.2168L119.929 60.2168C109.793 39.9873 108.813 37.8703 108.323 36.6941C108.533 40.3519 108.533 45.2681 108.533 50.4078L108.533 60.1697L103.855 60.2168Z" fill="white"/>
<path d="M131.661 60.2168L131.661 31.4839L138.147 31.4839C147.595 49.9844 149.03 52.7836 149.497 54.1126L149.567 54.1126C149.287 50.5842 149.24 45.8797 149.24 41.1752L149.24 31.4839L153.906 31.4839L153.906 60.2168L147.712 60.2168C137.575 39.9873 136.596 37.8703 136.047 36.6941C136.234 40.3989 136.234 45.3152 136.234 50.4549L136.234 60.2168L131.661 60.2168Z" fill="white"/>
<path d="M165.029 31.4839L165.029 60.2167L160.394 60.2167L160.394 31.4839L165.029 31.4839Z" fill="white"/>
<path d="M171.517 31.4839L189.127 31.4839L189.127 35.7062L176.383 35.7062L176.383 43.7509L188.374 43.7509L188.374 47.8909L176.429 47.8909L176.429 60.2167L171.517 60.2167L171.517 31.4839Z" fill="white"/>
<path d="M210.954 47.3381L197.946 47.3381L197.946 56.018L212.299 56.018L211.645 60.2167L192.835 60.2167L192.835 31.4839L211.524 31.4839L211.524 35.7062L197.946 35.7062L197.946 43.0923L210.954 43.0923L210.954 47.3381Z" fill="white"/>
<path d="M221.082 47.8775L221.082 60.1932L216.006 60.1932L216.006 31.4839L227.246 31.4839C232.594 31.4839 236.38 34.1045 236.38 39.1225C236.488 40.5896 236.095 42.0503 235.265 43.2681C234.434 44.4859 233.213 45.3895 231.801 45.8327C234.723 46.8903 235.835 49.1819 235.835 52.8837L235.835 53.5535C235.8 55.7811 235.931 58.0083 236.226 60.2167L231.387 60.2167C230.908 58.0138 230.733 55.7564 230.866 53.5065L230.866 52.8014C230.866 49.2759 229.565 47.948 225.448 47.948L221.082 47.8775ZM221.082 43.8114L225.814 43.8114C228.938 43.8114 231.351 42.9535 231.351 39.4868C231.351 36.6781 229.364 35.5029 226.619 35.5029L221.082 35.5029L221.082 43.8114Z" fill="white"/>
<path d="M68.9471 89.7661C69.0766 91.1015 69.7317 92.3325 70.7705 93.1923C71.8093 94.0522 73.1481 94.4716 74.4968 94.3597C77.7756 94.3597 79.2817 92.8668 79.2817 90.4896C79.2817 87.745 77.7524 86.6081 73.3614 85.3219C67.0239 83.5304 64.7763 81.3254 64.7763 77.2831C64.7763 72.3335 68.6923 69.4855 74.0449 69.4855C80.6025 69.4855 83.3136 72.9995 83.6959 77.329L78.772 77.329C78.3896 75.0322 77.1615 73.3211 73.9754 73.3211C71.1716 73.3211 69.7813 74.6418 69.7813 76.7663C69.7813 78.8908 71.2296 79.7981 75.4237 81.0154C82.5605 83.1169 84.3911 85.9075 84.3911 89.881C84.3911 94.4746 81.2513 98.2183 74.2651 98.2183C68.1941 98.2183 64.3708 95.1177 64 89.7087L68.9471 89.7661Z" fill="white"/>
<path d="M112.197 83.6918C112.197 91.6985 108.281 98.2183 99.5032 98.2183C91.0056 98.2184 87.1717 91.7443 87.1717 83.6575C87.1717 76.6229 91.0289 69.4855 99.8773 69.4855C108.211 69.4855 112.197 75.9824 112.197 83.6918ZM92.3848 83.6918C92.3848 89.6053 94.8161 94.2836 99.7253 94.2836C104.997 94.2836 107.031 89.8341 107.031 83.749C107.031 78.1785 104.985 73.4545 99.6669 73.4545C94.5706 73.466 92.3848 77.9955 92.3848 83.646L92.3848 83.6918Z" fill="white"/>
<path d="M116.831 69.4855L121.881 69.4855L121.881 83.1465C125.045 79.3256 129.939 73.5062 133.222 69.4972L139.382 69.4972L129.104 81.1714L140.003 98.2183L133.843 98.2183L125.57 84.5338L121.917 88.3899L121.917 98.2183L116.831 98.2184L116.831 69.4855Z" fill="white"/>
<path d="M164.102 83.6917C164.102 91.6985 160.176 98.2183 151.402 98.2183C142.908 98.2183 139.076 91.7443 139.076 83.6574C139.076 76.6229 142.943 69.4854 151.788 69.4854C160.153 69.4854 164.102 75.9824 164.102 83.6917ZM144.299 83.6918C144.299 89.6053 146.717 94.2836 151.624 94.2836C156.905 94.2836 158.926 89.8341 158.926 83.7489C158.926 78.1785 156.893 73.4545 151.566 73.4545C146.472 73.466 144.299 77.9955 144.299 83.646L144.299 83.6918Z" fill="white"/>
<path d="M168.736 69.4854L173.793 69.4854L173.793 94.0195L185.76 94.0195L186.346 98.2183L168.748 98.2183L168.736 69.4854Z" fill="white"/>
<path d="M210.445 83.6917C210.445 91.6985 206.529 98.2183 197.751 98.2183C189.253 98.2183 185.42 91.7443 185.42 83.6574C185.42 76.6229 189.277 69.4854 198.125 69.4854C206.494 69.4854 210.445 75.9824 210.445 83.6917ZM190.633 83.6917C190.633 89.6053 193.064 94.2836 197.973 94.2836C203.245 94.2836 205.279 89.8341 205.279 83.7489C205.279 78.1785 203.233 73.4545 197.903 73.4545C192.819 73.4659 190.633 77.9955 190.633 83.646L190.633 83.6917Z" fill="white"/>
<path d="M220.708 98.2183L211.372 69.4854L216.809 69.4854L220.849 82.9168C222.023 86.7981 223.198 90.7381 223.773 93.4197L223.855 93.4197C224.442 90.9381 225.758 86.7628 226.932 83.0227L231.195 69.4854L236.397 69.4854L226.756 98.2183L220.708 98.2183Z" fill="white"/>
<path d="M71.9011 118L67.9411 118L67.9411 114.688L72.0991 114.688L72.0991 113.014L66.0691 113.014L66.0691 125.218L72.1351 125.218L72.3691 123.58L67.9411 123.58L67.9411 119.656L71.9011 119.656L71.9011 118ZM75.7663 125.218L75.7663 121.258C75.7663 119.062 75.7663 117.19 75.6763 115.678L75.6943 115.678C75.8383 116.218 76.3063 117.46 79.2043 125.218L81.3103 125.218L81.3103 113.014L79.6003 113.014L79.6003 116.83C79.6003 118.828 79.6183 120.628 79.7083 122.158L79.6903 122.158C79.5463 121.582 79.0603 120.34 76.2523 113.014L74.0563 113.014L74.0563 125.218L75.7663 125.218ZM89.6685 118L85.7085 118L85.7085 114.688L89.8665 114.688L89.8665 113.014L83.8365 113.014L83.8365 125.218L89.9025 125.218L90.1365 123.58L85.7085 123.58L85.7085 119.656L89.6685 119.656L89.6685 118ZM94.8297 119.872C96.3057 119.872 96.6657 120.52 96.6657 122.194L96.6657 122.626C96.6657 123.652 96.6837 124.66 96.8637 125.218L98.6997 125.218C98.5917 124.57 98.5377 123.94 98.5377 122.644L98.5377 122.158C98.5377 120.394 98.1237 119.53 97.1157 119.098C97.7817 118.846 98.7177 118.072 98.7177 116.29C98.7177 114.184 97.5297 113.014 95.3697 113.014L91.8237 113.014L91.8237 125.218L93.6957 125.218L93.6957 119.872L94.8297 119.872ZM93.6957 114.58L95.0997 114.58C96.2877 114.58 96.8097 115.264 96.8097 116.362C96.8097 117.658 96.2877 118.324 94.9197 118.324L93.6957 118.324L93.6957 114.58ZM107.832 118.414L104.16 118.414L104.16 120.052L105.96 120.052L105.96 120.7C105.96 122.752 105.6 123.814 104.268 123.814C102.774 123.814 102.396 122.086 102.396 119.17C102.396 116.38 102.864 114.454 104.376 114.454C105.816 114.454 105.924 115.84 105.96 116.308L107.832 116.308C107.796 115.588 107.616 112.834 104.43 112.834C101.856 112.834 100.434 114.814 100.434 119.17C100.434 122.986 101.28 125.416 103.854 125.416C105.024 125.416 105.798 125.002 106.284 124.084C106.302 124.552 106.338 124.858 106.374 125.218L107.832 125.218L107.832 118.414ZM113.758 125.218L113.758 120.826C113.758 120.646 113.776 120.52 113.812 120.448L116.926 113.014L114.928 113.014C114.262 114.886 113.308 117.388 112.858 118.774C112.498 117.514 111.544 114.994 110.806 113.014L108.7 113.014L111.778 120.43C111.832 120.538 111.85 120.646 111.85 120.79L111.85 125.218L113.758 125.218ZM123.441 125.218L125.331 125.218L125.331 114.688L127.977 114.688L127.977 113.014L120.795 113.014L120.795 114.688L123.441 114.688L123.441 125.218ZM129.51 125.218L131.4 125.218L131.4 119.602L134.694 119.602L134.694 125.218L136.584 125.218L136.584 113.014L134.694 113.014L134.694 117.964L131.4 117.964L131.4 113.014L129.51 113.014L129.51 125.218ZM144.929 118L140.969 118L140.969 114.688L145.127 114.688L145.127 113.014L139.097 113.014L139.097 125.218L145.163 125.218L145.397 123.58L140.969 123.58L140.969 119.656L144.929 119.656L144.929 118ZM150.09 119.872C151.566 119.872 151.926 120.52 151.926 122.194L151.926 122.626C151.926 123.652 151.944 124.66 152.124 125.218L153.96 125.218C153.852 124.57 153.798 123.94 153.798 122.644L153.798 122.158C153.798 120.394 153.384 119.53 152.376 119.098C153.042 118.846 153.978 118.072 153.978 116.29C153.978 114.184 152.79 113.014 150.63 113.014L147.084 113.014L147.084 125.218L148.956 125.218L148.956 119.872L150.09 119.872ZM148.956 114.58L150.36 114.58C151.548 114.58 152.07 115.264 152.07 116.362C152.07 117.658 151.548 118.324 150.18 118.324L148.956 118.324L148.956 114.58ZM160.785 121.87L161.505 125.218L163.485 125.218L160.569 113.014L158.121 113.014L155.259 125.218L157.149 125.218L157.851 121.87L160.785 121.87ZM158.193 120.214C158.697 117.838 159.129 115.894 159.273 114.778L159.327 114.778C159.507 115.876 159.903 117.658 160.443 120.214L158.193 120.214ZM164.922 125.218L166.812 125.218L166.812 120.142L168.234 120.142C170.52 120.142 171.834 118.864 171.834 116.578C171.834 114.22 170.394 113.014 168.414 113.014L164.922 113.014L164.922 125.218ZM166.812 114.58L168.144 114.58C169.278 114.58 169.926 115.282 169.926 116.542C169.926 117.946 169.314 118.612 168.018 118.612L166.812 118.612L166.812 114.58ZM177.603 125.218L177.603 120.826C177.603 120.646 177.621 120.52 177.657 120.448L180.771 113.014L178.773 113.014C178.107 114.886 177.153 117.388 176.703 118.774C176.343 117.514 175.389 114.994 174.651 113.014L172.545 113.014L175.623 120.43C175.677 120.538 175.695 120.646 175.695 120.79L175.695 125.218L177.603 125.218ZM189.418 111.178L189.418 129.916L190.966 129.916L190.966 111.178L189.418 111.178ZM204.661 125.218L204.661 120.826C204.661 120.646 204.679 120.52 204.715 120.448L207.829 113.014L205.831 113.014C205.165 114.886 204.211 117.388 203.761 118.774C203.401 117.514 202.447 114.994 201.709 113.014L199.603 113.014L202.681 120.43C202.735 120.538 202.753 120.646 202.753 120.79L202.753 125.218L204.661 125.218ZM212.253 112.834C209.787 112.834 208.383 114.688 208.383 119.008C208.383 123.418 209.589 125.416 212.163 125.416C214.917 125.416 216.051 123.382 216.051 119.026C216.051 114.814 214.863 112.834 212.253 112.834ZM212.217 114.454C213.603 114.454 214.107 115.912 214.107 119.008C214.107 122.176 213.639 123.814 212.217 123.814C210.849 123.814 210.327 122.086 210.327 118.99C210.327 116.056 210.849 114.454 212.217 114.454ZM225.21 118.414L221.538 118.414L221.538 120.052L223.338 120.052L223.338 120.7C223.338 122.752 222.978 123.814 221.646 123.814C220.152 123.814 219.774 122.086 219.774 119.17C219.774 116.38 220.242 114.454 221.754 114.454C223.194 114.454 223.302 115.84 223.338 116.308L225.21 116.308C225.174 115.588 224.994 112.834 221.808 112.834C219.234 112.834 217.812 114.814 217.812 119.17C217.812 122.986 218.658 125.416 221.232 125.416C222.402 125.416 223.176 125.002 223.662 124.084C223.68 124.552 223.716 124.858 223.752 125.218L225.21 125.218L225.21 118.414ZM232.226 121.87L232.946 125.218L234.926 125.218L232.01 113.014L229.562 113.014L226.7 125.218L228.59 125.218L229.292 121.87L232.226 121.87ZM229.634 120.214C230.138 117.838 230.57 115.894 230.714 114.778L230.768 114.778C230.948 115.876 231.344 117.658 231.884 120.214L229.634 120.214Z" fill="#FBFCFE"/>
</svg>
